<svg width="95" height="30" viewBox="0 0 95 30" xmlns="http://www.w3.org/2000/svg"><title>logoStocksy</title><path d="M67.095 24.194c-.19 0-.378.033-.563.018-.189-.015-.375-.048-.559-.078-.186-.03-.367-.086-.547-.132a6.058 6.058 0 0 1-.537-.163c-.179-.063-.358-.12-.526-.2-.171-.08-.323-.193-.481-.29a4.969 4.969 0 0 1-.894-.69 4.554 4.554 0 0 1-.373-.432c-.12-.154-.258-.291-.354-.452-.1-.168-.168-.349-.242-.52-.08-.181-.17-.353-.221-.531a3.028 3.028 0 0 1-.125-1.139c.011-.169.055-.318.095-.448.099-.332.211-.4.363-.141.079.133.19.295.314.486.095.148.215.299.347.46.115.142.228.299.377.438.134.126.294.234.46.35.15.107.298.235.477.326.164.085.348.147.539.214.173.062.359.113.556.156.18.04.368.098.57.12.15.016.305-.01.453-.01.2 0 .39-.02.572-.048.198-.03.395-.036.57-.094.19-.062.366-.15.528-.239.176-.096.32-.228.461-.347.154-.129.301-.255.412-.401.122-.162.233-.326.3-.495a3.12 3.12 0 0 0 .148-.525c.04-.188.038-.37.036-.542 0-.187-.01-.366-.052-.539a2.672 2.672 0 0 0-.166-.52 3.64 3.64 0 0 0-.271-.472c-.1-.148-.225-.28-.342-.423-.112-.138-.216-.289-.34-.425-.12-.133-.268-.242-.393-.375-.115-.124-.227-.251-.341-.377-.115-.125-.223-.257-.331-.386a6.658 6.658 0 0 1-.317-.398 5.078 5.078 0 0 1-.28-.424c-.086-.146-.174-.294-.239-.45a3.258 3.258 0 0 1-.147-.489 3.182 3.182 0 0 1-.097-.587 3.1 3.1 0 0 1 .046-.593c.028-.195.068-.39.133-.579a3.48 3.48 0 0 1 .235-.547c.093-.17.234-.314.359-.473.112-.143.206-.304.337-.433.13-.126.277-.237.424-.348.144-.11.297-.21.455-.303.156-.092.314-.187.48-.262.166-.075.343-.126.517-.183.172-.057.344-.121.524-.16.177-.039.357-.08.54-.099.18-.02.365-.003.548-.003.048 0 .097.017.146.018.18.005.354-.017.518-.002.181.016.35.062.51.088.182.03.351.058.509.099.178.046.35.073.501.13.175.065.332.142.472.219.166.09.295.208.418.305.152.12.296.22.393.335.123.147.216.315.293.48.08.171.14.351.168.534a1.9 1.9 0 0 1-.021.557c-.026.174-.057.333-.133.458a.851.851 0 0 1-.359.31 1.037 1.037 0 0 1-.461.085 1.6 1.6 0 0 1-.629-.114 1.184 1.184 0 0 1-.385-.269 2.156 2.156 0 0 1-.28-.376c-.11-.174-.22-.356-.406-.512a1.7 1.7 0 0 0-.581-.295 2.118 2.118 0 0 0-.647-.105c-.16 0-.313.018-.455.057a1.392 1.392 0 0 0-.422.18c-.128.09-.228.212-.307.342a1.03 1.03 0 0 0-.142.582c.006.188.069.378.169.575.058.112.152.23.273.37.09.106.182.234.301.356.102.105.198.23.316.348.121.121.266.235.399.372.121.125.254.25.381.388.12.13.223.282.344.423.116.136.223.282.336.428.11.142.227.282.33.434.102.149.21.296.302.455.091.156.166.322.245.488.078.163.172.322.235.494.063.17.111.347.157.525.045.174.066.356.092.539.025.177.027.358.032.544.005.178.034.361.018.546-.015.178-.035.36-.071.544-.034.174-.098.348-.153.527a4.58 4.58 0 0 1-.19.497c-.07.164-.134.33-.222.482a4.854 4.854 0 0 1-1.031 1.206c-.133.116-.26.243-.403.346-.144.103-.312.17-.464.259-.153.09-.307.172-.466.249-.16.076-.318.154-.482.218-.166.064-.324.147-.493.199-.17.052-.348.07-.52.109-.173.04-.342.102-.515.128-.176.027-.356.013-.53.027a6.773 6.773 0 0 1-.528.015m-45.603 1.28c-.203 0-.406.018-.6-.023a2.719 2.719 0 0 1-.567-.202 2.612 2.612 0 0 1-.502-.327 2.57 2.57 0 0 1-.425-.42 2.875 2.875 0 0 1-.322-.47c-.085-.164-.132-.35-.193-.537a4.347 4.347 0 0 1-.142-.551 5.493 5.493 0 0 1-.078-.565c-.015-.183-.014-.373-.014-.57 0-.184-.028-.376-.014-.572.013-.185.053-.372.078-.566.024-.185.025-.379.06-.572.032-.183.07-.372.113-.563.039-.172.09-.344.13-.52.041-.172.097-.343.14-.519.042-.171.08-.346.126-.52.044-.172.104-.34.15-.514.047-.17.07-.35.119-.523.047-.171.086-.346.135-.52.05-.17.122-.336.173-.508.051-.171.086-.348.138-.52.053-.17.136-.332.19-.502.053-.17.093-.346.148-.516l.166-.511c.057-.17.14-.33.197-.5.058-.17.086-.35.145-.52.06-.169.181-.555.226-.729.097-.377.156-.336-.202-.315-.02.001-.377.006-.397.005a3.055 3.055 0 0 1-.546-.084c-.18-.049-.362-.093-.531-.169-.17-.076-.329-.177-.485-.276-.16-.1-.298-.225-.438-.342a4.369 4.369 0 0 1-.524-.576c-.18-.248-.16-.243 0-.405.202-.203.518-.39.704-.49.156-.085.33-.167.514-.255.164-.078.34-.15.526-.231.168-.073.343-.15.527-.223.172-.07.35-.14.535-.21.174-.066.351-.142.537-.209.176-.062.36-.112.547-.175.178-.06.709-.242.895-.302a.613.613 0 0 0 .382-.338c.08-.17.24-.592.319-.756.08-.169.173-.33.253-.493.084-.17.169-.334.25-.495.086-.17.16-.34.243-.5.089-.17.19-.326.274-.483.092-.171.166-.341.252-.494.096-.172.178-.339.266-.486.105-.176.225-.319.314-.454.102-.156.222-.293.333-.432.116-.146.212-.304.336-.432.129-.134.278-.241.413-.358.141-.12.28-.237.427-.34.151-.107.291-.227.447-.316a6.1 6.1 0 0 1 .488-.247c.169-.078.347-.122.515-.184.175-.063.34-.148.51-.195.18-.05.363-.08.536-.115.185-.037.365-.072.539-.094.19-.024.373-.018.545-.03.195-.011.513-.058.76-.013.297.054.35.119.203.338-.089.133-.265.435-.382.614-.092.143-.2.295-.308.466-.093.148-.193.306-.297.475-.094.15-.197.306-.299.474-.093.153-.182.317-.282.485l-.284.481c-.092.157-.19.317-.286.483-.091.158-.197.313-.292.48-.09.159-.172.328-.265.494-.09.16-.307.61-.406.775-.202.338-.018.33.158.293.176-.037.65-.178.826-.214.176-.035.35-.079.527-.113.177-.034.357-.043.534-.076.177-.032.355-.055.531-.086.178-.032.352-.075.529-.104.177-.03.353-.071.53-.1.177-.028.356-.044.534-.07.178-.028.352-.078.53-.103.179-.026.358-.044.536-.068.178-.024.359-.032.537-.054.179-.023.358-.03.536-.051.18-.021.354-.075.532-.094.18-.02.358-.044.535-.061.18-.018.36-.014.539-.03.179-.017.359-.025.536-.04.18-.014.358-.046.537-.059.18-.013.36-.016.539-.027.18-.011.36-.015.537-.024.18-.009.36-.01.537-.016.181-.007.36-.034.538-.039.18-.005.359.027.536.025.18-.003.358-.004.535-.004.179 0 .359-.008.541-.005.179.003.359-.022.54-.016.179.005.358.04.538.048.18.007.361-.014.542-.003.18.012.358.058.537.073.18.014.361.014.541.032.18.018.357.056.536.077.18.022.364.006.543.032.18.025.358.052.536.081.179.03.356.067.532.102.179.035.35.095.526.135.177.04.354.078.527.124.177.046.355.078.527.13.175.053.345.116.514.175.173.06.341.125.508.192.17.067.325.162.488.236a8.842 8.842 0 0 1 .955.506c.155.097.31.19.453.296.147.109.3.209.433.328.136.12.248.265.37.397.124.133.237.273.344.417.109.144.218.29.293.454.146.323-.038.267-.2.174-.155-.09-.333-.146-.499-.229-.16-.08-.314-.184-.484-.258a11.98 11.98 0 0 0-.508-.21c-.168-.064-.35-.1-.525-.16-.172-.056-.34-.132-.518-.184-.173-.05-.35-.099-.53-.144-.176-.043-.351-.1-.533-.139-.177-.038-.358-.07-.541-.103-.178-.032-.361-.046-.545-.074-.179-.027-.36-.057-.543-.08-.18-.022-.363-.03-.548-.048-.18-.018-.363-.026-.548-.04-.18-.014-.362-.044-.547-.054-.182-.01-.365-.007-.55-.014-.182-.007-.366-.005-.552-.008-.181-.003-.365-.023-.55-.023-.185 0-.37.027-.556.03-.185.003-.37-.029-.556-.023-.185.006-.37.012-.555.02-.186.009-.37.024-.555.036a34.467 34.467 0 0 0-1.108.085c-.185.016-.371.022-.555.04-.185.019-.367.062-.55.082-.186.02-.368.056-.55.079-.186.022-.373.03-.556.054-.185.025-.372.036-.555.063-.184.026-.366.07-.548.097-.185.029-.366.07-.548.1-.185.03-.373.026-.554.058-.185.032-.363.086-.544.119-.184.034-.366.064-.546.098-.184.036-.368.059-.548.095l-.544.11c-.183.039-.36.093-.539.132-.184.04-.37.06-.546.1-.184.041-.36.1-.537.142-.183.043-.367.07-.543.112-.183.045-.355.122-.529.165-.173.044-.357.076-.545.126-.173.046-.347.118-.534.17-.173.048-.357.081-.543.134-.173.05-.357.086-.542.14-.174.051-.35.117-.534.172-.174.052-.353.104-.537.16-.174.053-.707.21-.887.28-.292.112-.317.214-.398.38-.068.137-.122.292-.19.43-.08.163-.168.306-.218.413-.08.169-.14.346-.217.512-.079.17-.17.333-.246.499-.078.17-.142.345-.216.513-.076.171-.13.35-.202.519-.074.171-.167.333-.239.503-.072.172-.13.35-.2.52-.07.173-.158.338-.225.51-.068.173-.127.349-.192.521-.066.174-.115.353-.178.526-.063.175-.147.342-.208.516-.06.175-.108.355-.167.53-.059.176-.112.353-.169.53-.056.175-.118.35-.172.527-.053.177-.122.349-.174.527-.052.177-.078.362-.128.541-.05.178-.087.36-.134.54-.05.186-.133.357-.176.533-.047.188-.072.375-.112.552-.043.19-.073.375-.107.551-.038.192-.078.374-.106.55-.032.195-.053.38-.074.556-.022.197-.07.38-.078.554-.01.203-.003.391.007.562.012.207.076.385.117.547.052.205.096.385.194.518.079.106.17.2.286.252.26.114.245.238.146.29-.1.051-.219.097-.357.135a2.58 2.58 0 0 1-.678.075v-.004m11.51-12.303c-.174 0-.344.073-.52.137-.16.057-.322.13-.48.236-.141.095-.292.195-.43.326a4.65 4.65 0 0 0-.37.394c-.112.133-.21.285-.317.439-.1.142-.221.28-.317.439a9.528 9.528 0 0 0-.5.96c-.073.16-.152.323-.222.494-.066.163-.098.345-.16.517-.06.167-.14.331-.196.506-.054.169-.078.35-.128.526-.049.171-.096.346-.14.523-.043.174-.095.347-.133.526-.041.191-.09.374-.12.552-.033.195-.053.383-.073.56-.022.2-.05.386-.056.563-.006.203.023.39.038.564.019.207.062.386.111.55.06.2.122.374.228.506.173.215.4.306.673.306.169 0 .355-.012.545-.094a2.68 2.68 0 0 0 .475-.295c.14-.102.282-.223.425-.361.128-.122.276-.24.404-.388.117-.135.208-.303.324-.459.107-.145.206-.304.307-.47.095-.155.222-.3.31-.47.086-.163.159-.338.237-.512.076-.17.124-.353.194-.53.068-.173.152-.343.214-.521.06-.178.133-.353.186-.534.054-.18.092-.366.138-.547.047-.184.069-.372.107-.555.04-.186.087-.37.117-.551.031-.191.076-.376.095-.56a8.6 8.6 0 0 0 .043-.564c.008-.197-.012-.387-.02-.565-.01-.2-.01-.392-.041-.563-.039-.203-.125-.375-.197-.527a1.029 1.029 0 0 0-.27-.37.706.706 0 0 0-.423-.165c-.031-.005-.028-.023-.058-.023m-3.5 12.33c-.195 0-.389.028-.577.002a3.95 3.95 0 0 1-.563-.13c-.184-.054-.358-.136-.533-.217a4.066 4.066 0 0 1-.505-.275c-.159-.103-.322-.204-.472-.331-.137-.115-.247-.256-.368-.382a4.893 4.893 0 0 1-.648-.833 4.896 4.896 0 0 1-.243-.47c-.075-.158-.175-.308-.234-.476-.058-.166-.087-.342-.129-.516-.04-.17-.102-.339-.128-.516a6.076 6.076 0 0 1-.052-.53c-.01-.175 0-.353.004-.532.004-.175.029-.35.047-.529a7.17 7.17 0 0 1 .066-.527c.03-.172.08-.341.121-.516.041-.17.064-.347.117-.52.05-.166.097-.339.16-.508.063-.173.15-.334.215-.499.069-.171.122-.346.192-.509.074-.169.178-.32.254-.48.078-.167.145-.336.226-.494.085-.163.17-.324.257-.478.091-.161.207-.303.3-.454.098-.157.169-.327.269-.473.105-.153.205-.305.312-.446.111-.148.255-.264.369-.4.119-.142.23-.283.35-.412.127-.135.235-.283.362-.404.134-.128.283-.233.418-.346.142-.12.292-.219.434-.323.15-.11.29-.221.439-.315.157-.1.303-.208.458-.29.164-.088.333-.155.492-.225.172-.075.346-.123.51-.18.177-.063.35-.115.517-.16.183-.047.354-.105.522-.135.19-.033.37-.035.537-.05.199-.019.377-.06.535-.06.089 0 .177.008.265.012.19.008.38.04.568.084a3.508 3.508 0 0 1 1.063.426c.162.098.327.2.478.322.147.12.28.261.412.403.13.138.262.28.375.438.103.143.185.302.272.458.086.154.171.31.241.475.07.161.14.325.195.497.053.167.061.348.1.524.038.171.106.339.13.518.023.173.027.352.037.532.01.175.012.352.01.532-.002.175 0 .353-.013.533-.013.175-.047.35-.071.53-.023.173-.035.351-.068.528-.032.172-.058.35-.1.526-.04.17-.112.336-.161.51-.051.178-.123.35-.185.526-.062.176-.098.361-.17.534-.071.171-.17.331-.25.5-.082.167-.16.335-.25.499-.09.163-.161.338-.259.496a11.19 11.19 0 0 1-.308.467c-.106.154-.236.29-.349.438-.112.148-.205.314-.324.456-.12.143-.254.275-.38.411-.127.138-.252.276-.385.406-.134.13-.286.24-.425.363-.14.124-.268.262-.412.377-.148.116-.306.216-.456.322-.154.109-.317.199-.474.296-.16.098-.31.21-.472.296-.167.088-.339.162-.507.235a5.775 5.775 0 0 1-1.056.35 5.147 5.147 0 0 1-.546.11c-.187.022-.372.009-.556.009m13.894.03c-.194 0-.388.03-.577.006a4.66 4.66 0 0 1-.566-.117c-.187-.047-.365-.122-.543-.192a4.5 4.5 0 0 1-.521-.244c-.169-.093-.338-.183-.494-.297-.154-.114-.284-.258-.424-.391a4.793 4.793 0 0 1-.698-.845 4.866 4.866 0 0 1-.25-.461c-.078-.156-.18-.303-.243-.469-.06-.162-.094-.337-.14-.508-.046-.167-.112-.333-.144-.508a6.806 6.806 0 0 1-.072-.523c-.018-.172-.017-.35-.023-.528-.004-.172.01-.348.017-.527.007-.173.013-.348.03-.525.018-.173.055-.345.083-.522.027-.171.035-.349.072-.523.039-.184.07-.369.116-.548.046-.182.118-.356.171-.533.054-.18.094-.364.155-.539.06-.177.156-.341.224-.513.069-.175.127-.352.203-.521.076-.17.155-.34.239-.506.084-.167.196-.318.287-.479.092-.163.16-.34.258-.496.1-.158.2-.317.306-.468.108-.153.251-.278.366-.423.116-.148.227-.296.35-.435.123-.14.23-.295.36-.427.132-.133.28-.247.418-.37.14-.126.29-.234.436-.349.146-.116.286-.237.438-.342.154-.107.299-.225.458-.32.16-.096.33-.173.495-.257.167-.084.343-.143.513-.215.172-.071.345-.136.52-.194.177-.059.349-.13.529-.174.18-.044.366-.06.549-.09.183-.03.363-.087.548-.102a6.89 6.89 0 0 1 .558-.017c.041 0 .041.006.083.007a3.528 3.528 0 0 1 1.157.193c.188.064.373.135.543.23.172.096.329.22.48.344.152.124.301.254.43.405.126.147.228.317.33.489a3.599 3.599 0 0 1 .43 1.028c.041.181.031.371.045.558.013.184.051.37.038.557a4.06 4.06 0 0 1-.094.552c-.039.18-.093.358-.158.535a4.37 4.37 0 0 1-.214.517 3.269 3.269 0 0 1-.336.504c-.138.178-.269.337-.425.428-.288.167-.574.165-.574.165a.997.997 0 0 1-.444-.126c-.134-.066-.279-.134-.394-.253-.104-.108-.178-.25-.257-.395a1.758 1.758 0 0 1-.176-.438c-.037-.162-.074-.322-.057-.473a1.07 1.07 0 0 1 .16-.452c.123-.192.217-.384.236-.584.019-.213-.051-.414-.155-.605a1.11 1.11 0 0 0-.47-.47 1.42 1.42 0 0 0-.657-.146c-.14 0-.32-.005-.53.054-.15.043-.306.129-.485.224-.142.076-.3.158-.457.278-.13.1-.276.206-.415.342-.118.116-.223.263-.346.41-.108.13-.224.266-.335.42a8.944 8.944 0 0 0-.31.466c-.1.159-.199.317-.289.48-.09.165-.166.336-.246.504a9.92 9.92 0 0 0-.226.513c-.071.173-.14.347-.201.523-.062.177-.132.352-.183.53-.052.182-.085.366-.125.547-.041.185-.066.37-.095.552-.029.188-.04.375-.055.558a6.63 6.63 0 0 0-.018.558c0 .192-.011.378.007.56.02.19.03.38.07.555.042.188.117.362.183.53.072.18.165.34.262.49.105.16.206.318.34.44.138.127.29.242.456.324.162.081.346.13.533.167.178.035.36.04.536.04a2.8 2.8 0 0 0 .562-.047c.186-.04.358-.12.53-.19.175-.073.344-.153.505-.25.162-.098.325-.193.472-.308.152-.118.306-.232.44-.357.144-.133.254-.292.378-.423.14-.147.263-.292.377-.418.513-.568.648-.59.617-.063-.008.135-.03.297-.078.479a6.87 6.87 0 0 1-.352.958c-.067.15-.152.308-.243.477-.082.149-.154.316-.257.473-.094.144-.226.27-.34.416a5.794 5.794 0 0 1-.347.407 5.4 5.4 0 0 1-.379.38c-.131.115-.254.25-.402.356-.143.102-.308.176-.467.267-.152.088-.297.196-.465.271-.16.072-.34.105-.514.163-.165.055-.333.118-.512.16-.185.042-.373.055-.56.077a4.877 4.877 0 0 1-.561.029m-36.424.682c-.188 0-.377.036-.563.026-.188-.01-.375-.036-.56-.057-.187-.02-.37-.062-.554-.093a9.968 9.968 0 0 1-.551-.107c-.185-.042-.37-.075-.547-.127-.183-.054-.353-.138-.526-.202a7.465 7.465 0 0 1-.518-.212 6.243 6.243 0 0 1-.498-.253 5.674 5.674 0 0 1-.471-.31c-.156-.11-.327-.199-.467-.322-.144-.125-.264-.272-.391-.41-.13-.14-.273-.267-.384-.417a4.97 4.97 0 0 1-.313-.474c-.096-.165-.172-.34-.247-.512-.076-.174-.129-.356-.183-.536a4.63 4.63 0 0 1-.135-.55c-.032-.186-.037-.375-.045-.564-.008-.188-.03-.377-.013-.566.016-.188.033-.378.073-.564.04-.183.112-.36.176-.54.065-.186.125-.37.211-.532.091-.173.22-.316.332-.466.115-.155.228-.308.361-.44.137-.134.281-.26.432-.371.154-.115.328-.194.492-.287.167-.094.323-.207.496-.28a5.8 5.8 0 0 1 .534-.201c.187-.058.382-.065.562-.103.194-.04.38-.08.56-.099.202-.022.392-.063.564-.059.589.013.5.194.207.327-.156.072-.284.207-.428.322-.134.108-.252.242-.38.375-.119.124-.245.25-.352.398-.102.14-.214.28-.3.443a4.118 4.118 0 0 0-.222.49c-.06.16-.094.337-.139.517-.04.166-.094.339-.12.524-.026.2-.005.4 0 .595a3.552 3.552 0 0 0 .207 1.163 3.296 3.296 0 0 0 .61 1.011c.117.135.25.25.387.365.136.115.272.228.423.321.151.093.314.164.478.234.162.07.324.144.497.191.17.046.345.074.523.098.174.023.351.025.531.025.178 0 .362.026.545.002.176-.022.347-.095.526-.14.172-.045.348-.089.52-.156a4.89 4.89 0 0 0 .496-.223c.157-.083.307-.184.46-.288.148-.098.303-.192.447-.31.137-.113.26-.246.393-.377.126-.124.24-.263.362-.404.115-.134.249-.26.359-.41.105-.142.222-.283.322-.44.094-.15.16-.323.249-.486.085-.156.19-.306.27-.474.077-.16.146-.328.218-.5.068-.163.11-.342.173-.516.06-.167.124-.337.18-.514.054-.17.13-.337.18-.516.047-.171.062-.355.105-.535.04-.175.093-.35.13-.531.035-.176.063-.356.094-.54.032-.184.082-.37.103-.562.021-.187.014-.38.026-.572.011-.189.033-.379.036-.572.004-.188.018-.38.016-.572-.003-.19-.032-.38-.04-.572-.007-.19-.009-.38-.021-.571-.012-.19-.026-.381-.04-.572-.015-.19-.026-.381-.043-.571-.017-.19-.043-.38-.061-.57l-.056-.57c-.018-.18-.033-.361-.05-.54-.017-.18-.019-.362-.035-.543-.016-.18-.044-.36-.06-.54-.014-.18-.036-.36-.048-.54-.013-.18-.034-.361-.043-.541-.009-.182-.021-.363-.025-.543-.006-.182.013-.363.013-.543 0-.183.022-.363.027-.542.006-.183-.006-.364.007-.543.014-.183.021-.364.043-.542.022-.182.073-.357.105-.533.032-.18.077-.354.12-.527.045-.177.082-.354.138-.524.058-.173.11-.346.182-.51.071-.167.162-.324.25-.482.086-.157.162-.324.265-.472a4.95 4.95 0 0 1 .341-.423c.118-.134.255-.252.39-.376.133-.12.278-.223.42-.331.141-.109.269-.238.42-.333.15-.096.303-.19.461-.273.158-.082.33-.14.494-.208.164-.069.334-.124.504-.18.169-.054.336-.12.51-.162.172-.04.35-.067.527-.095.175-.027.353-.042.531-.055.177-.013.355-.013.535-.013.186 0 .37-.015.55-.001.185.014.362.07.54.098.184.029.362.064.537.107.181.044.358.087.528.146.176.06.356.103.519.179.17.078.319.19.47.283.16.098.329.178.467.291.146.118.255.27.374.402.125.14.246.276.339.43.095.16.156.33.214.502.058.174.134.345.15.529.014.156.008.316-.021.466-.03.15-.085.3-.156.439-.068.135-.176.25-.282.365-.12.133-.257.249-.41.34a1.96 1.96 0 0 1-.487.225 2.157 2.157 0 0 1-.951.02c-.135-.028-.262-.092-.394-.145-.263-.105-.376-.215-.419-.36-.048-.164-.003-.347.056-.57.043-.165.08-.347.084-.533a.915.915 0 0 0-.152-.502 1.247 1.247 0 0 0-.355-.398 1.66 1.66 0 0 0-.482-.235A1.883 1.883 0 0 0 18.879 2c-.173 0-.35.03-.52.073a2.357 2.357 0 0 0-.489.189c-.151.078-.278.201-.417.313-.133.107-.277.207-.394.342-.11.127-.222.276-.328.45-.09.147-.152.323-.23.507-.07.16-.154.326-.21.516-.049.168-.094.35-.129.543-.032.173-.073.356-.091.551a7.517 7.517 0 0 0-.027.559c-.004.178.014.364.022.559.008.178.017.364.036.557.018.18.053.363.08.554.026.175.061.351.09.531.03.175.042.355.074.534.03.175.074.35.108.529.032.174.072.35.106.53.033.173.047.352.08.528.033.174.09.345.122.522.031.174.027.356.056.532.03.175.057.35.084.527.027.176.06.351.083.528.024.176.047.353.068.53.02.177.042.355.058.533.016.177.02.356.03.534.012.178.044.356.05.535.006.178.023.356.023.535-.001.178-.021.357-.028.536-.007.178-.032.355-.047.534-.014.177-.016.356-.039.534-.022.177-.036.356-.067.532-.03.176-.099.344-.138.52-.039.173-.061.35-.11.524-.048.176-.104.348-.158.519-.055.173-.125.34-.187.508a13.41 13.41 0 0 1-.196.504c-.07.169-.128.34-.204.502-.077.166-.176.318-.26.476-.085.16-.156.327-.248.481-.092.156-.202.3-.302.45-.1.15-.177.317-.285.46-.108.146-.232.278-.347.416-.116.139-.217.29-.34.423-.122.132-.262.249-.392.374s-.273.234-.41.352c-.136.118-.266.242-.409.354-.141.11-.288.214-.436.318-.147.103-.305.19-.459.287-.151.095-.303.192-.461.282a8.94 8.94 0 0 1-.486.25c-.164.08-.335.143-.504.212-.168.07-.331.151-.504.21-.172.06-.35.098-.527.148-.175.049-.347.114-.525.153-.178.04-.36.058-.54.087-.18.03-.358.067-.54.086-.181.02-.362.057-.545.066-.181.01-.365-.008-.548-.008-.011-.001 0-.02 0-.02m57.427 2.434c-.198 0-.396.034-.592.02-.198-.015-.394-.048-.588-.077-.196-.03-.387-.083-.578-.127a7.752 7.752 0 0 1-.571-.153c-.175-.055-.35-.103-.52-.171-.168-.07-.321-.17-.483-.252a7.15 7.15 0 0 1-.934-.56c-.147-.106-.286-.223-.428-.338-.14-.115-.301-.207-.435-.331-.132-.124-.247-.268-.373-.4-.126-.131-.27-.247-.389-.386a10.65 10.65 0 0 1-.346-.424c-.11-.144-.21-.298-.316-.447-.104-.149-.195-.308-.293-.462-.097-.154-.198-.306-.29-.464-.091-.157-.166-.324-.252-.485-.085-.161-.19-.313-.268-.477-.08-.164-.165-.326-.239-.493-.073-.168-.122-.345-.189-.515-.067-.17-.149-.335-.21-.506-.06-.173-.088-.357-.142-.53-.056-.174-.122-.345-.17-.52a14.54 14.54 0 0 1-.138-.53c-.042-.18-.066-.668-.146-.83-.09-.18-.113-.225-.315-.022-.129.129-.417.45-.526.59-.113.143-.24.272-.347.414-.11.144-.229.28-.333.424-.106.146-.2.3-.301.447-.102.149-.186.31-.284.458-.099.15-.207.294-.302.446-.095.153-.205.296-.296.45-.09.155-.18.311-.267.469-.086.155-.154.323-.238.482-.083.158-.183.309-.264.47-.08.16-.128.336-.206.5-.076.16-.212.501-.298.662-.18.338-.187.465-.494.338-.146-.06-.423-.304-.525-.449a1.78 1.78 0 0 1-.218-.49 3.168 3.168 0 0 1-.124-.519c-.023-.166-.02-.346-.026-.534-.004-.17-.01-.35 0-.535.009-.171.014-.35.035-.533.02-.172.083-.343.113-.524.03-.172.025-.355.064-.533.037-.171.091-.342.137-.518.045-.17.097-.342.15-.515.052-.169.097-.343.157-.513.061-.175.14-.343.201-.517.062-.175.109-.354.171-.528.063-.174.116-.352.179-.525.064-.174.152-.338.215-.512.065-.173.145-.34.21-.513.064-.174.099-.359.164-.531.065-.173.154-.337.22-.509.066-.173.126-.348.193-.52.067-.172.11-.354.177-.525.068-.173.14-.343.208-.514.069-.172.162-.333.23-.504.07-.172.111-.355.18-.524.07-.172.153-.338.223-.507.071-.172.137-.344.208-.513.072-.17.165-.331.237-.5.073-.17.124-.349.197-.517.074-.17.162-.333.235-.5.075-.171.162-.334.237-.5.076-.17.131-.348.207-.514.077-.17.161-.335.238-.5l.234-.501c.08-.169.165-.333.243-.496.081-.169.154-.338.234-.501.083-.168.164-.334.246-.496.084-.167.17-.33.253-.49.087-.167.186-.323.27-.482.089-.166.166-.333.252-.49.091-.165.173-.33.262-.485.097-.169.19-.335.3-.486a5.3 5.3 0 0 1 .352-.45c.128-.144.277-.265.415-.391.142-.13.3-.236.45-.348.154-.115.299-.239.458-.336.165-.1.328-.201.494-.284.174-.086.357-.14.53-.21.18-.072.362-.126.537-.18.188-.06.367-.122.543-.164.196-.047.38-.096.554-.126.208-.035.399-.059.564-.064.576-.018.486.072.265.425-.084.133-.2.278-.314.459-.09.141-.2.291-.307.464-.09.146-.159.322-.262.491-.09.15-.182.311-.282.479-.09.152-.202.3-.301.468-.09.153-.19.31-.286.477-.09.154-.165.324-.26.49-.09.156-.187.313-.281.479-.089.156-.184.315-.277.481-.088.158-.185.316-.277.482-.087.159-.158.332-.249.498-.087.16-.206.305-.297.472l-.264.49c-.086.161-.167.329-.256.496-.086.161-.148.339-.237.506-.085.161-.196.313-.284.48-.085.162-.144.34-.23.508-.085.162-.2.311-.287.479-.084.162-.156.334-.241.502-.084.163-.185.32-.27.489-.084.164-.133.347-.218.516-.083.164-.173.328-.25.5-.185.408-.185.588-.024.407.125-.139.267-.258.392-.391.127-.136.252-.271.38-.401.13-.133.258-.267.389-.393.134-.13.261-.262.396-.384.138-.126.264-.262.402-.38.143-.12.301-.218.443-.33.147-.117.295-.226.441-.334.15-.11.306-.21.456-.312.155-.104.306-.209.46-.304a11 11 0 0 1 .477-.277c.164-.09.312-.204.476-.282.168-.08.348-.13.515-.198.173-.07.346-.133.518-.19.176-.06.345-.137.52-.182.181-.046.366-.062.544-.094.184-.032.365-.054.546-.07.184-.017.367-.01.549-.01.211 0 .42-.006.627.031.475.087.436.225.295.334-.145.113-.385.31-.525.42-.145.114-.282.233-.422.344-.144.113-.297.212-.437.323-.143.114-.277.236-.416.348-.143.114-.28.232-.418.344-.142.115-.294.215-.431.328-.143.116-.266.25-.403.364-.142.116-.304.204-.44.318l-.418.347c-.139.118-.273.24-.408.355l-.41.354c-.139.12-.273.24-.407.358-.137.121-.28.233-.412.352-.137.122-.254.26-.386.38-.135.123-.258.256-.388.377-.135.125-.277.236-.406.358-.133.126-.382.355-.507.48-.247.249-.26.378-.202.721.03.183.079.503.116.678.04.18.068.361.11.535.044.18.089.357.136.53.048.178.114.349.166.52.054.177.09.357.148.525.06.176.139.34.203.507.065.174.117.349.187.513.073.17.177.323.253.484.08.167.146.337.23.494.086.165.196.311.286.465.094.16.175.323.273.472.102.155.193.314.299.457.11.15.232.284.345.422.118.143.236.28.357.411.126.135.244.274.373.397.135.127.274.244.411.358.142.118.283.233.426.338.15.109.294.221.445.316.156.098.323.174.48.259.163.087.318.183.48.257.168.076.344.126.51.189.173.065.34.138.51.19.177.054.357.088.53.13.18.043.361.056.535.087.184.032.36.08.535.1.185.02.366.021.54.031.188.01.368.036.541.036.18 0 .354-.013.521-.021.182-.01.355-.04.519-.056.184-.019.36-.019.519-.043.192-.029.362-.073.51-.104.39-.082.502-.014.289.367-.081.145-.214.266-.345.402-.117.121-.231.258-.378.374-.133.105-.273.218-.428.316-.145.091-.317.147-.48.23-.152.08-.305.171-.472.242-.159.067-.322.139-.492.197a7.588 7.588 0 0 1-.51.148 8.21 8.21 0 0 1-.517.126c-.17.034-.35.03-.528.054-.173.023-.348.047-.526.06-.176.011-.352.011-.53.011m13.793-4.086c-.209.038-.399.114-.586.148-.212.04-.411.066-.591.1-.2.039-.393.065-.573.111-.199.05-.386.106-.56.164-.197.065-.373.149-.54.222-.192.083-.379.147-.533.238a3.282 3.282 0 0 0-.477.34 1.88 1.88 0 0 0-.383.444c-.116.192-.174.39-.157.562.016.17.123.302.248.416.11.098.244.191.421.239.143.038.309.03.489.03.155 0 .321-.003.497-.034.156-.026.321-.052.489-.102.154-.045.31-.106.472-.17.177-.072.355-.14.52-.233.166-.091.312-.215.467-.328.15-.111.288-.24.428-.371.136-.128.282-.248.408-.396.121-.141.222-.302.335-.461.106-.152.24-.292.335-.463.285-.511.263-.601-.197-.55-.259.028-.256.047-.512.094m-3.196 4.863c-.256 0-.516.027-.771 0a4.041 4.041 0 0 1-.51-.095c-.173-.04-.332-.108-.488-.17a3.028 3.028 0 0 1-.46-.23 2.585 2.585 0 0 1-.421-.3c-.128-.12-.22-.268-.314-.41a2.079 2.079 0 0 1-.349-.955 2.284 2.284 0 0 1 .021-.556c.026-.177.036-.366.104-.551.061-.167.161-.328.26-.499.09-.153.171-.325.293-.48.11-.138.237-.28.375-.418.127-.127.274-.245.425-.369.138-.114.295-.216.456-.327.148-.103.301-.21.469-.31.155-.091.325-.17.497-.258.16-.084.318-.188.495-.268.165-.075.333-.16.512-.231.17-.068.353-.114.534-.178.172-.062.344-.14.528-.198.166-.052.342-.074.51-.127.166-.05.328-.117.498-.169l.502-.153c.166-.05.341-.073.512-.123.165-.049.324-.129.495-.178.166-.048.517-.16.69-.203.3-.075.263-.085.405-.406.073-.164.17-.41.216-.574.05-.174.115-.339.165-.5.055-.176.1-.35.156-.504-.012-.06-.049-.071-.109-.054-.137.135-.28.249-.419.369-.146.126-.304.229-.45.338a6.82 6.82 0 0 1-.462.32c-.164.103-.317.212-.48.293-.173.087-.354.14-.525.2-.183.063-.354.144-.532.178a3.08 3.08 0 0 1-.56.048c-.208 0-.41-.03-.602-.078a2.37 2.37 0 0 1-1.061-.563 2.728 2.728 0 0 1-.407-.453 3.31 3.31 0 0 1-.262-.485 3.792 3.792 0 0 1-.206-.511c-.052-.172-.077-.355-.11-.54a5.172 5.172 0 0 1-.07-.546c-.011-.18-.024-.364-.02-.552.006-.18.055-.36.075-.546.02-.179.007-.366.04-.55.032-.178.083-.355.128-.536.043-.176.096-.352.15-.531.055-.173.105-.35.17-.526.065-.172.15-.34.223-.512.072-.17.134-.347.215-.516.078-.168.152-.34.238-.506.086-.165.198-.316.291-.478.092-.162.201-.313.3-.471.098-.16.171-.333.275-.487.104-.156.232-.294.341-.444.111-.151.219-.303.334-.447.118-.147.217-.308.339-.446.124-.142.254-.277.382-.409.131-.135.283-.246.418-.37.14-.129.261-.274.403-.388.149-.119.307-.22.457-.322a5.5 5.5 0 0 1 .475-.295c.168-.091.347-.149.515-.213.179-.07.35-.145.527-.182.186-.038.373-.044.555-.044.081 0 .24.039.123.262-.074.14-.297.533-.391.714l-.249.485c-.078.154-.166.314-.25.484-.079.158-.152.326-.235.494-.078.16-.156.325-.236.493-.078.161-.158.325-.236.492-.077.164-.167.323-.243.49-.075.166-.138.338-.212.505-.073.167-.137.338-.208.505-.071.17-.132.343-.2.51-.068.172-.13.343-.194.511-.066.174-.148.338-.207.505-.065.188-.14.362-.19.535-.054.193-.078.382-.112.555-.039.2-.055.388-.066.561-.014.21-.032.398-.006.565.034.21.095.394.193.533a.86.86 0 0 0 .35.275c.127.057.275.075.436.075.179 0 .376-.025.581-.094.175-.058.345-.161.528-.263.165-.092.333-.194.498-.317.153-.115.315-.23.462-.369.142-.133.293-.27.423-.422.061-.172.093-.356.154-.521.064-.172.123-.342.187-.507.067-.17.153-.33.22-.493.069-.17.144-.332.214-.494.073-.168.128-.34.2-.5.077-.167.16-.326.236-.484.08-.166.165-.324.244-.48.084-.164.174-.32.258-.473.089-.162.158-.33.246-.48.094-.16.217-.296.31-.443.099-.158.196-.308.294-.451.105-.154.201-.304.305-.442.111-.15.2-.308.31-.44.118-.145.257-.262.374-.388.127-.138.23-.287.354-.405.137-.13.294-.223.426-.33.147-.12.281-.239.421-.333.158-.107.32-.181.468-.259.171-.09.319-.198.473-.255a3.48 3.48 0 0 1 .519-.148c.203-.04.386-.039.534-.05.43-.032.421.115.34.284-.081.17-.274.64-.353.81-.08.172-.166.339-.244.509-.08.172-.16.342-.236.512-.078.172-.178.334-.253.504-.077.173-.15.346-.224.517-.076.173-.145.348-.218.52-.074.173-.138.35-.21.522-.074.175-.13.357-.2.53-.073.175-.167.34-.238.512-.07.176-.144.35-.214.523-.07.175-.146.347-.215.52-.068.176-.13.353-.198.526l-.2.526c-.068.177-.102.365-.169.54-.066.177-.158.342-.223.517-.066.176-.133.351-.197.526-.066.177-.106.362-.17.537-.065.177-.151.344-.215.518-.064.177-.13.351-.194.525-.056.155-.127.302-.182.454-.057.155-.11.31-.165.462-.057.154-.15.473-.2.627-.09.276-.044.394.338.293.18-.048.514-.167.692-.216.18-.05.358-.108.535-.158.181-.052.365-.086.542-.137.18-.053.351-.13.528-.183.18-.055.368-.074.544-.129.18-.055.358-.11.533-.167.18-.057.354-.122.528-.18a30.701 30.701 0 0 0 1.05-.379c.176-.067.354-.125.523-.193.175-.07.338-.165.506-.238.173-.076.336-.166.502-.244.17-.081.345-.149.507-.233.168-.088.338-.165.496-.256.164-.095.315-.205.468-.305.159-.102.304-.218.451-.326.152-.112.32-.2.459-.319.143-.123.266-.265.395-.395a5.79 5.79 0 0 0 .377-.41c.12-.144.241-.286.344-.44.103-.154.2-.314.287-.479.085-.163.217-.145.213.036-.005.186 0 .37-.023.55-.024.183-.074.359-.117.537-.042.178-.063.363-.125.537-.062.171-.147.335-.227.502-.078.163-.145.337-.24.496-.094.155-.211.299-.322.45-.107.144-.233.277-.355.419-.118.136-.233.28-.365.412a8.58 8.58 0 0 1-.402.375c-.134.12-.284.226-.43.342-.141.11-.284.225-.436.334-.146.104-.3.203-.456.305-.151.098-.312.183-.472.279-.155.092-.304.199-.467.289-.157.086-.326.156-.492.241-.16.082-.315.182-.483.262-.163.077-.336.139-.505.214-.166.073-.328.158-.5.229-.166.07-.328.159-.501.227-.168.065-.348.11-.522.173-.17.063-.338.138-.513.2-.171.059-.352.097-.528.156-.172.056-.344.12-.52.175-.174.054-.344.124-.522.177-.173.051-.355.08-.534.13-.174.05-.348.111-.527.16-.175.047-.352.097-.532.144a22.08 22.08 0 0 0-.69.19c-.356.107-.46.14-.584.473-.079.213-.294.631-.386.82-.08.164-.16.333-.255.497a7.9 7.9 0 0 1-.304.468c-.104.15-.21.304-.327.452-.114.144-.259.265-.384.404-.123.137-.246.275-.38.406-.132.128-.244.282-.386.404-.14.12-.306.21-.456.322a8.384 8.384 0 0 1-.93.61c-.162.09-.332.163-.502.242a7.784 7.784 0 0 1-.512.214c-.172.067-.337.155-.516.21-.177.053-.355.11-.538.15-.18.041-.364.068-.55.096-.181.027-.369.018-.556.031-.183.014-.367.02-.555.02" fill="#FFF" fill-rule="evenodd"/></svg>